<?xml version="1.0" encoding="utf-8"?>
<!-- Generator: Adobe Illustrator 25.0.0, SVG Export Plug-In . SVG Version: 6.00 Build 0)  -->
<svg version="1.1" id="Layer_1" xmlns="http://www.w3.org/2000/svg" xmlns:xlink="http://www.w3.org/1999/xlink" x="0px" y="0px"
	 viewBox="0 0 1920 213" style="enable-background:new 0 0 1920 213;" xml:space="preserve">
<style type="text/css">
	.st0{fill:#CC0033;}
	.st1{fill:#FFFFFF;filter:url(#Adobe_OpacityMaskFilter);}
	.st2{mask:url(#mask0_53_2_1_);}
	.st3{opacity:0.84;}
	.st4{opacity:0.12;}
	.st5{fill:#FFFFFF;}
</style>
<polygon class="st0" points="1920,8 1920,213 0,213 0,46.4 784,46.4 803.5,37.5 805.4,36.7 843.3,19.5 844.8,18.8 868.7,8 "/>
<defs>
	<filter id="Adobe_OpacityMaskFilter" filterUnits="userSpaceOnUse" x="930" y="16" width="990" height="251.5">
		<feColorMatrix  type="matrix" values="1 0 0 0 0  0 1 0 0 0  0 0 1 0 0  0 0 0 1 0"/>
	</filter>
</defs>
<mask maskUnits="userSpaceOnUse" x="930" y="16" width="990" height="251.5" id="mask0_53_2_1_">
	<path class="st1" d="M1920,0H960v206h960V0z"/>
</mask>
<g class="st2">
	<g class="st3">
		<g class="st4">
			<path class="st5" d="M977.6,192.3v62.1h1.6v-62.1H977.6z"/>
			<path class="st5" d="M1108.7,242.9l1.3,0.8l28.8-51l-1.3-0.8L1108.7,242.9z"/>
			<path class="st5" d="M1149.3,201.9l-27.6,48.9l-1.3-0.8l27.6-48.9L1149.3,201.9z"/>
			<path class="st5" d="M1227,234.1l1.5,0.5l14.2-42l-1.5-0.5L1227,234.1z"/>
			<path class="st5" d="M1256.9,192.5l-15.5,42l-1.5-0.5l15.5-42L1256.9,192.5z"/>
			<path class="st5" d="M993.1,192.3v62.1h1.6v-62.1H993.1z"/>
			<path class="st5" d="M1053.7,224.7l-0.2,0.3l-37.9,42.5l-1.2-1l37.6-42.2l-4.5-31.9l1.5-0.2L1053.7,224.7z"/>
			<path class="st5" d="M1069.7,218.7l-1.5,0.3l-6.1-26.6l1.5-0.3L1069.7,218.7z"/>
			<path class="st5" d="M1223.7,246.2l-0.8,1.3l-74.7-45.4l0.8-1.3L1223.7,246.2z"/>
			<path class="st5" d="M1158.3,192.9l69,42.1l0.8-1.3l-69-42.1L1158.3,192.9z"/>
			<path class="st5" d="M986.1,117.3v1.6h-1.1l-0.2-0.1l-18.6-11.3l0.8-1.3l18.4,11.2H986.1z"/>
			<path class="st5" d="M978.8,129.5l-0.8,1.3l-21.1-12.8l0.8-1.3L978.8,129.5z"/>
			<path class="st5" d="M978.7,16v8.3h1.6V16H978.7z"/>
			<path class="st5" d="M978.7,38.8v33.5h1.6V38.8H978.7z"/>
			<path class="st5" d="M930,46.5l13.2-6.9h36.2V38h-36.4L930,44.8V46.5z"/>
			<path class="st5" d="M939.9,23.6v1.6h39.5v-1.6H939.9z"/>
			<path class="st5" d="M977.6,130.2v62.1h1.6v-62.1H977.6z"/>
			<path class="st5" d="M986.7,85.5l-19.4,21.8l-1.2-1l19.5-21.8L986.7,85.5z"/>
			<path class="st5" d="M980,72.7l-24.5,27.4l-1.2-1l24.5-27.4L980,72.7z"/>
			<path class="st5" d="M1130,32.1l26.4-16.1h-3l-24.2,14.8L1130,32.1z"/>
			<path class="st5" d="M1116.6,40.3l-36.2,22l-0.8-1.3l36.2-22L1116.6,40.3z"/>
			<path class="st5" d="M1068.7,69.3l-51,31l-0.8-1.3l51-31L1068.7,69.3z"/>
			<path class="st5" d="M1006,107.4l-18.6,11.4h-1.3v-1.6h0.8l18.2-11.2L1006,107.4z"/>
			<path class="st5" d="M1136.9,44.2l46.5-28.2h-3l-44.4,26.9L1136.9,44.2z"/>
			<path class="st5" d="M1121.4,53.7l-34.1,20.7l-0.8-1.3l34.1-20.7L1121.4,53.7z"/>
			<path class="st5" d="M1015.4,118.1l-21.1,12.8l-0.8-1.3l21.1-12.8L1015.4,118.1z"/>
			<path class="st5" d="M1167.2,91.5l-52.3,31.8l-0.8-1.3l52.3-31.8L1167.2,91.5z"/>
			<path class="st5" d="M1064.4,152.3l0.8,1.3l38.1-23.2l-0.8-1.3L1064.4,152.3z"/>
			<path class="st5" d="M1120.6,133.3l0.8,1.3l58.4-35.6l-0.8-1.3L1120.6,133.3z"/>
			<path class="st5" d="M1109.7,141.7l-40.4,24.7l-0.8-1.3l40.4-24.7L1109.7,141.7z"/>
			<path class="st5" d="M1069,68.3l-1.4,0.8l-7.5-13.4l1.4-0.8L1069,68.3z"/>
			<path class="st5" d="M1074.6,81.2l27.6,48.9l1.3-0.8l-27.6-48.9L1074.6,81.2z"/>
			<path class="st5" d="M1108.6,141.4l28.9,51.2l1.3-0.8l-28.9-51.2L1108.6,141.4z"/>
			<path class="st5" d="M1080.7,61.2l-1.4,0.8l-3.5-6.3l1.3-0.8L1080.7,61.2z"/>
			<path class="st5" d="M1086.2,74.1l27.7,48.9l1.3-0.8l-27.6-48.9L1086.2,74.1z"/>
			<path class="st5" d="M1120.3,134.3l27.6,48.9l1.4-0.8l-27.6-48.9L1120.3,134.3z"/>
			<path class="st5" d="M1167.2,90.2l-0.8,1.3l-11.1-6.9l-34.8-31l1-1.2l34.7,31L1167.2,90.2z"/>
			<path class="st5" d="M1224,137.2l-1.5,0.5l-4.9-15L1179,99l0.8-1.3l39.1,24L1224,137.2z"/>
			<path class="st5" d="M1226.9,150.5l14.2,42l1.5-0.5l-14.2-42L1226.9,150.5z"/>
			<path class="st5" d="M1256.9,192l-1.5,0.5l-15.5-42l1.5-0.5L1256.9,192z"/>
			<path class="st5" d="M1235.1,137.7l1.5-0.5l-10.5-29l46.1-92.2h-1.7l-46.1,92.2L1235.1,137.7z"/>
			<path class="st5" d="M1253.5,17.9l-2.5,6.9l-3.2,6.8l-4,6.6l-4.4,5.9l-5.3,5.7l-5.7,4.9l-6.1,4.4l-6.6,3.6l-6.9,3.2l-7.2,2.3
				l-7.4,1.5l-7.6,0.8l-7.4,0l-7.6-0.8l-7.4-1.5l-7.5-2.5l-20.7-21.5l1.1-1.1l20.6,21.4l6.9,2.2l7.2,1.4l7.5,0.8l7.2,0l7.4-0.8
				l7.2-1.5l7-2.3l6.8-3.1l6.4-3.5l6-4.3l5.6-4.8l5.2-5.6l4.3-5.8l3.9-6.4l3.1-6.6l2.5-6.8L1253.5,17.9z"/>
			<path class="st5" d="M1252.2,17.6l1.5-0.3l-0.2-1.3h-1.6L1252.2,17.6z"/>
			<path class="st5" d="M992.1,16v8.3h1.6V16H992.1z"/>
			<path class="st5" d="M992.1,38.8v33.5h1.6V38.8H992.1z"/>
			<path class="st5" d="M1032.8,25l14.7-9h-3l-12.5,7.7L1032.8,25z"/>
			<path class="st5" d="M1075.7,55.3l1.6,0l-0.6-39.3h-1.5L1075.7,55.3z"/>
			<path class="st5" d="M1061.2,54.6l-0.7,1.4L1029,39.5h-36.2V38l36.8,0.1L1061.2,54.6z"/>
			<path class="st5" d="M992.8,23.6v1.6h39.5v-1.6H992.8z"/>
			<path class="st5" d="M993.1,130.2v62.1h1.6v-62.1H993.1z"/>
			<path class="st5" d="M1006.2,106.2l-1.2,1l-19.5-21.8l1.2-1L1006.2,106.2z"/>
			<path class="st5" d="M1053.7,159.8l-4.7,32.6l-1.5-0.2l4.6-31.9l-37.6-42.4l1.2-1L1053.7,159.8z"/>
			<path class="st5" d="M1075.6,81.5l-48.5,29.5l-0.8-1.3l48.5-29.5L1075.6,81.5z"/>
			<path class="st5" d="M1017.9,99.1l-1.2,1l-24.5-27.4l1.2-1L1017.9,99.1z"/>
			<path class="st5" d="M1026.2,110.8l38,42.7l1.2-1l-38-42.7L1026.2,110.8z"/>
			<path class="st5" d="M1069.7,165.9l-6.1,26.6l-1.5-0.3l6.1-26.6L1069.7,165.9z"/>
			<path class="st5" d="M1115.5,39.8l1.5-0.4l-6.5-23.4h-1.6L1115.5,39.8z"/>
			<path class="st5" d="M1128.9,31.7l1.5-0.4l-4.2-15.2h-1.6L1128.9,31.7z"/>
			<path class="st5" d="M1235.8,136.7l0,1.6l37.4-0.4l0-1.6L1235.8,136.7z"/>
			<path class="st5" d="M1223.7,138.1l-74.7,45.4l-0.8-1.3l74.7-45.4L1223.7,138.1z"/>
			<path class="st5" d="M1240.7,149.5v1.6h32.6v-1.6H1240.7z"/>
			<path class="st5" d="M1158.3,191.6l0.8,1.3l69-42l-0.8-1.3L1158.3,191.6z"/>
			<path class="st5" d="M1408.2,192.7l28.8,51l1.4-0.8l-28.9-51L1408.2,192.7z"/>
			<path class="st5" d="M1397.7,201.9l27.7,48.9l1.3-0.8l-27.6-48.9L1397.7,201.9z"/>
			<path class="st5" d="M1304.4,192.5l14.2,42l1.5-0.5l-14.2-42L1304.4,192.5z"/>
			<path class="st5" d="M1307.1,234l-1.4,0.5l-15.5-42l1.5-0.5L1307.1,234z"/>
			<path class="st5" d="M1552.4,192.3v62.1h1.5v-62.1H1552.4z"/>
			<path class="st5" d="M1532.7,266.4l-1.2,1l-38.1-42.7l4.7-32.6l1.5,0.2l-4.5,31.9L1532.7,266.4z"/>
			<path class="st5" d="M1484.9,192.4l-6.1,26.6l-1.5-0.3l6.1-26.6L1484.9,192.4z"/>
			<path class="st5" d="M1398.8,202.1l-74.7,45.4l-0.8-1.3l74.7-45.4L1398.8,202.1z"/>
			<path class="st5" d="M1319,233.7l0.8,1.3l69-42l-0.8-1.3L1319,233.7z"/>
			<path class="st5" d="M1683.4,242.9l1.4,0.8l28.9-51l-1.3-0.8L1683.4,242.9z"/>
			<path class="st5" d="M1724.1,201.9l-27.6,48.9l-1.3-0.8l27.6-48.9L1724.1,201.9z"/>
			<path class="st5" d="M1801.8,234.1l1.5,0.5l14.2-42l-1.5-0.5L1801.8,234.1z"/>
			<path class="st5" d="M1831.7,192.5l-15.5,42l-1.5-0.5l15.5-42L1831.7,192.5z"/>
			<path class="st5" d="M1567.9,192.3v62.1h1.6v-62.1H1567.9z"/>
			<path class="st5" d="M1628.5,224.7l-0.2,0.3l-37.9,42.4l-1.2-1l37.6-42.2l-4.5-31.9l1.5-0.2L1628.5,224.7z"/>
			<path class="st5" d="M1644.5,218.7l-1.5,0.3l-6.1-26.6l1.5-0.3L1644.5,218.7z"/>
			<path class="st5" d="M1798.5,246.2l-0.8,1.3l-74.7-45.4l0.8-1.3L1798.5,246.2z"/>
			<path class="st5" d="M1733.1,192.9l69,42.1l0.8-1.3l-69-42.1L1733.1,192.9z"/>
			<path class="st5" d="M1417.1,32.1l0.8-1.3L1393.6,16h-3L1417.1,32.1z"/>
			<path class="st5" d="M1467.4,60.9l-0.8,1.3l-36.2-22l0.8-1.3L1467.4,60.9z"/>
			<path class="st5" d="M1530.2,99l-0.8,1.3l-51-31l0.8-1.3L1530.2,99z"/>
			<path class="st5" d="M1560.9,117.3v1.6h-1.1l-0.2-0.1l-18.6-11.3l0.8-1.3l18.4,11.2H1560.9z"/>
			<path class="st5" d="M1410.2,44.2l0.8-1.3L1366.6,16h-3L1410.2,44.2z"/>
			<path class="st5" d="M1460.5,73l-0.8,1.3l-34.1-20.7l0.8-1.3L1460.5,73z"/>
			<path class="st5" d="M1553.6,129.5l-0.8,1.3l-21.1-12.8l0.8-1.3L1553.6,129.5z"/>
			<path class="st5" d="M1432.9,122l-0.8,1.3l-52.3-31.8l0.8-1.3L1432.9,122z"/>
			<path class="st5" d="M1443.8,130.4l38.1,23.2l0.8-1.3l-38.1-23.2L1443.8,130.4z"/>
			<path class="st5" d="M1367.3,99l58.3,35.6l0.8-1.3l-58.3-35.6L1367.3,99z"/>
			<path class="st5" d="M1478.5,165.1l-0.8,1.3l-40.4-24.7l0.8-1.3L1478.5,165.1z"/>
			<path class="st5" d="M1486.9,55.7l-7.5,13.4l-1.4-0.8l7.5-13.4L1486.9,55.7z"/>
			<path class="st5" d="M1443.6,129.4l1.4,0.8l27.6-48.9l-1.3-0.8L1443.6,129.4z"/>
			<path class="st5" d="M1408.2,191.9l1.4,0.8l28.9-51.2l-1.4-0.8L1408.2,191.9z"/>
			<path class="st5" d="M1471.3,55.7l-3.6,6.3l-1.3-0.8l3.6-6.3L1471.3,55.7z"/>
			<path class="st5" d="M1431.8,122.2l1.4,0.8l27.6-48.9l-1.4-0.8L1431.8,122.2z"/>
			<path class="st5" d="M1397.8,182.5l1.3,0.8l27.6-48.9l-1.3-0.8L1397.8,182.5z"/>
			<path class="st5" d="M1426.6,53.6l-34.7,31l-11.2,7l-0.8-1.3l11.1-6.9l34.6-30.9L1426.6,53.6z"/>
			<path class="st5" d="M1368.1,99l-38.7,23.7l-4.9,15l-1.5-0.5l5.1-15.5l0.2-0.1l38.9-23.8L1368.1,99z"/>
			<path class="st5" d="M1304.4,192l1.5,0.5l14.2-42l-1.5-0.5L1304.4,192z"/>
			<path class="st5" d="M1307.1,150.5l-15.5,42l-1.5-0.5l15.5-42L1307.1,150.5z"/>
			<path class="st5" d="M1321,108.2l-10.6,29l1.5,0.5l10.7-29.3l0.1-0.3L1276.8,16h-1.7L1321,108.2z"/>
			<path class="st5" d="M1411.1,44.1l-21,21.7l-7.1,2.3l-7.4,1.5l-7.4,0.8l-7.6,0l-7.6-0.8l-7.4-1.5l-7.2-2.3l-7-3.2l-6.5-3.6
				l-6.2-4.4l-5.7-4.8l-5.1-5.7l-4.6-5.9l-4-6.6l-3.2-6.8l-2.5-7l1.5-0.5l2.5,6.9l3.1,6.6l3.9,6.4l4.5,5.8l5,5.6l5.6,4.7l6,4.4
				l6.4,3.5l6.8,3.1l7,2.3l7.2,1.4l7.5,0.8l7.4,0l7.2-0.8l7.2-1.5l6.8-2.2L1410,43L1411.1,44.1z"/>
			<path class="st5" d="M1294.8,17.6l0.3-1.6h-1.6l-0.2,1.3L1294.8,17.6z"/>
			<path class="st5" d="M1553.5,16v8.3h1.6V16H1553.5z"/>
			<path class="st5" d="M1553.5,38.8v33.5h1.6V38.8H1553.5z"/>
			<path class="st5" d="M1514.3,25l0.8-1.3l-12.5-7.7h-3L1514.3,25z"/>
			<path class="st5" d="M1471.4,55.3l0.6-39.3h-1.6l-0.6,39.3L1471.4,55.3z"/>
			<path class="st5" d="M1554.2,38v1.6H1518L1486.6,56l-0.7-1.4l31.9-16.6H1554.2z"/>
			<path class="st5" d="M1514.7,23.6v1.6h39.5v-1.6H1514.7z"/>
			<path class="st5" d="M1552.4,130.2v62.1h1.5v-62.1H1552.4z"/>
			<path class="st5" d="M1561.5,85.5l-19.4,21.8l-1.2-1l19.4-21.8L1561.5,85.5z"/>
			<path class="st5" d="M1532.7,117.9l-37.6,42.4l4.5,31.9l-1.5,0.2l-4.7-32.6l38.1-42.9L1532.7,117.9z"/>
			<path class="st5" d="M1520.8,109.6l-0.8,1.3l-48.5-29.5l0.8-1.3L1520.8,109.6z"/>
			<path class="st5" d="M1554.8,72.7l-24.5,27.4l-1.2-1l24.5-27.4L1554.8,72.7z"/>
			<path class="st5" d="M1481.7,152.4l1.2,1l38.1-42.7l-1.2-1L1481.7,152.4z"/>
			<path class="st5" d="M1484.9,192.1l-1.5,0.3l-6.1-26.6l1.5-0.3L1484.9,192.1z"/>
			<path class="st5" d="M1431.6,39.8l6.6-23.8h-1.6l-6.5,23.4L1431.6,39.8z"/>
			<path class="st5" d="M1418.2,31.7l4.4-15.7h-1.6l-4.2,15.2L1418.2,31.7z"/>
			<path class="st5" d="M1274,137.8l37.2,0.4l0-1.6l-37.2-0.4L1274,137.8z"/>
			<path class="st5" d="M1398.8,182.2l-0.8,1.3l-74.7-45.4l0.8-1.3L1398.8,182.2z"/>
			<path class="st5" d="M1274,149.5v1.6h32.4v-1.6H1274z"/>
			<path class="st5" d="M1319,150.9l69,42.1l0.8-1.3l-69-42.1L1319,150.9z"/>
			<path class="st5" d="M1704.8,32.1l26.4-16.1h-3L1704,30.8L1704.8,32.1z"/>
			<path class="st5" d="M1691.4,40.3l-36.2,22l-0.8-1.3l36.2-22L1691.4,40.3z"/>
			<path class="st5" d="M1643.5,69.3l-51,31l-0.8-1.3l51-31L1643.5,69.3z"/>
			<path class="st5" d="M1580.8,107.4l-18.6,11.4h-1.3v-1.6h0.8l18.2-11.2L1580.8,107.4z"/>
			<path class="st5" d="M1711.7,44.2l46.6-28.2h-3l-44.4,26.9L1711.7,44.2z"/>
			<path class="st5" d="M1696.2,53.7l-34.1,20.7l-0.8-1.3l34.1-20.7L1696.2,53.7z"/>
			<path class="st5" d="M1590.2,118.1l-21.1,12.8l-0.8-1.3l21.1-12.8L1590.2,118.1z"/>
			<path class="st5" d="M1742,91.5l-52.3,31.8l-0.8-1.3l52.3-31.8L1742,91.5z"/>
			<path class="st5" d="M1639.2,152.3l0.8,1.3l38.1-23.2l-0.8-1.3L1639.2,152.3z"/>
			<path class="st5" d="M1695.4,133.3l0.8,1.3l58.3-35.6l-0.8-1.3L1695.4,133.3z"/>
			<path class="st5" d="M1684.5,141.7l-40.4,24.7l-0.8-1.3l40.4-24.7L1684.5,141.7z"/>
			<path class="st5" d="M1643.8,68.3l-1.4,0.8l-7.5-13.4l1.3-0.8L1643.8,68.3z"/>
			<path class="st5" d="M1678.3,129.4l-1.4,0.8l-27.6-48.9l1.3-0.8L1678.3,129.4z"/>
			<path class="st5" d="M1683.4,141.5l28.9,51.2l1.3-0.8l-28.9-51.2L1683.4,141.5z"/>
			<path class="st5" d="M1655.5,61.2l-1.3,0.8l-3.6-6.3l1.4-0.8L1655.5,61.2z"/>
			<path class="st5" d="M1661.1,74.1l27.6,48.9l1.4-0.8l-27.6-48.9L1661.1,74.1z"/>
			<path class="st5" d="M1695.1,134.3l27.6,48.9l1.4-0.8l-27.6-48.9L1695.1,134.3z"/>
			<path class="st5" d="M1742,90.2l-0.8,1.3l-11.1-6.9l-34.8-31l1-1.2l34.7,31L1742,90.2z"/>
			<path class="st5" d="M1798.8,137.2l-1.5,0.5l-4.9-15L1753.8,99l0.8-1.3l39.1,24L1798.8,137.2z"/>
			<path class="st5" d="M1801.7,150.5l14.2,42l1.5-0.5l-14.2-42L1801.7,150.5z"/>
			<path class="st5" d="M1831.7,192l-1.5,0.5l-15.5-42l1.5-0.5L1831.7,192z"/>
			<path class="st5" d="M1809.9,137.7l1.5-0.5l-10.6-29l46.1-92.2h-1.7l-46.1,92.2L1809.9,137.7z"/>
			<path class="st5" d="M1828.3,17.9l-2.5,6.9l-3.2,6.8l-4,6.6l-4.4,5.9l-5.3,5.7l-5.7,4.9l-6.1,4.4l-6.6,3.6l-7,3.2l-7.2,2.3
				l-7.4,1.5l-7.6,0.8l-7.4,0l-7.6-0.8l-7.4-1.5l-7.5-2.5l-20.7-21.5l1.1-1.1l20.6,21.4l6.9,2.2l7.2,1.4l7.5,0.8l7.2,0l7.4-0.8
				l7.2-1.5l7-2.3l6.8-3.1l6.4-3.5l6-4.3l5.6-4.8l5.2-5.6l4.3-5.8l3.9-6.4l3.1-6.6l2.5-6.8L1828.3,17.9z"/>
			<path class="st5" d="M1827,17.6l1.5-0.3l-0.2-1.3h-1.6L1827,17.6z"/>
			<path class="st5" d="M1566.8,16v8.3h1.6V16H1566.8z"/>
			<path class="st5" d="M1566.8,38.8v33.5h1.6V38.8H1566.8z"/>
			<path class="st5" d="M1607.6,25l14.7-9h-3l-12.5,7.7L1607.6,25z"/>
			<path class="st5" d="M1650.5,55.3l1.6,0l-0.6-39.3h-1.5L1650.5,55.3z"/>
			<path class="st5" d="M1635.9,54.6l-0.7,1.4l-31.4-16.4h-36.2V38l36.8,0.1L1635.9,54.6z"/>
			<path class="st5" d="M1567.6,23.6v1.6h39.5v-1.6H1567.6z"/>
			<path class="st5" d="M1567.9,130.2v62.1h1.6v-62.1H1567.9z"/>
			<path class="st5" d="M1581,106.2l-1.2,1l-19.5-21.8l1.2-1L1581,106.2z"/>
			<path class="st5" d="M1628.5,159.8l-4.7,32.6l-1.5-0.2l4.5-31.9l-37.6-42.4l1.2-1L1628.5,159.8z"/>
			<path class="st5" d="M1650.4,81.5l-48.5,29.5l-0.8-1.3l48.5-29.5L1650.4,81.5z"/>
			<path class="st5" d="M1592.7,99.1l-1.2,1L1567,72.7l1.2-1L1592.7,99.1z"/>
			<path class="st5" d="M1600.9,110.8l38,42.7l1.2-1l-38-42.7L1600.9,110.8z"/>
			<path class="st5" d="M1644.5,165.9l-6.1,26.6l-1.5-0.3l6.1-26.6L1644.5,165.9z"/>
			<path class="st5" d="M1690.3,39.8l1.5-0.4l-6.5-23.4h-1.6L1690.3,39.8z"/>
			<path class="st5" d="M1703.7,31.7l1.5-0.4l-4.2-15.2h-1.6L1703.7,31.7z"/>
			<path class="st5" d="M1810.6,136.7l0,1.6l37.4-0.4l0-1.6L1810.6,136.7z"/>
			<path class="st5" d="M1798.5,138.1l-74.7,45.4l-0.8-1.3l74.7-45.4L1798.5,138.1z"/>
			<path class="st5" d="M1815.4,149.5v1.6h32.6v-1.6H1815.4z"/>
			<path class="st5" d="M1733.1,191.6l0.8,1.3l69-42l-0.8-1.3L1733.1,191.6z"/>
			<path class="st5" d="M1879.2,192.5l14.2,42l1.5-0.5l-14.2-42L1879.2,192.5z"/>
			<path class="st5" d="M1881.9,234l-1.5,0.5l-15.5-42l1.5-0.5L1881.9,234z"/>
			<path class="st5" d="M1899.3,137.7l4.9-15l15.8-9.7v-1.8l-16.8,10.3l-0.2,0.1l-5.1,15.5L1899.3,137.7z"/>
			<path class="st5" d="M1879.2,192l1.5,0.5l14.2-42l-1.5-0.5L1879.2,192z"/>
			<path class="st5" d="M1881.9,150.5l-15.5,42l-1.5-0.5l15.5-42L1881.9,150.5z"/>
			<path class="st5" d="M1895.8,108.2l-10.5,29l1.5,0.5l10.7-29.3l0.1-0.3L1851.6,16h-1.7L1895.8,108.2z"/>
			<path class="st5" d="M1870.9,24.9l3.2,6.8l4,6.6l4.6,5.9l5.1,5.7l5.7,4.8l6.2,4.4l6.5,3.6l7,3.2l6.8,2.2v-1.6l-6.3-2l-6.8-3.1
				l-6.4-3.5l-6-4.4l-5.6-4.7l-5-5.6l-4.6-5.8l-3.9-6.4l-3.1-6.6l-2.5-6.9l-1.5,0.5L1870.9,24.9z"/>
			<path class="st5" d="M1869.6,17.6l0.3-1.6h-1.6l-0.2,1.3L1869.6,17.6z"/>
			<path class="st5" d="M1848.8,137.8l37.2,0.4l0-1.6l-37.2-0.4L1848.8,137.8z"/>
			<path class="st5" d="M1920,151.4v-1.8l-21-12.8l-0.8,1.3L1920,151.4z"/>
			<path class="st5" d="M1848.8,149.5v1.6h32.4v-1.6H1848.8z"/>
			<path class="st5" d="M1920,166.9v-1.8l-25.4-15.5l-0.8,1.3L1920,166.9z"/>
		</g>
	</g>
</g>
<g class="st3">
	<g class="st4">
		<path class="st5" d="M940.8,192.3v62.1h1.6v-62.1H940.8z"/>
		<path class="st5" d="M782.5,191.9l-1.4,0.8l28.8,51l1.4-0.8L782.5,191.9z"/>
		<path class="st5" d="M770.7,201.9l27.6,48.9l1.4-0.8L772,201.1L770.7,201.9z"/>
		<path class="st5" d="M678.8,192l-1.5,0.5l14.2,42l1.5-0.5L678.8,192z"/>
		<path class="st5" d="M663.1,192.5l15.5,42l1.5-0.5l-15.5-42L663.1,192.5z"/>
		<path class="st5" d="M925.3,192.3v62.1h1.6v-62.1H925.3z"/>
		<path class="st5" d="M866.3,224.7l0.2,0.3l37.9,42.5l1.2-1L868,224.2l4.5-31.9l-1.5-0.2L866.3,224.7z"/>
		<path class="st5" d="M850.3,218.7l1.5,0.3l6.1-26.6l-1.5-0.3L850.3,218.7z"/>
		<path class="st5" d="M696.3,246.2l0.8,1.3l74.7-45.4l-0.8-1.3L696.3,246.2z"/>
		<path class="st5" d="M760.9,191.6l-69,42.1l0.8,1.3l69-42.1L760.9,191.6z"/>
		<path class="st5" d="M933.9,117.3v1.6h1.1l0.2-0.1l18.6-11.3l-0.8-1.3l-18.4,11.2H933.9z"/>
		<path class="st5" d="M941.2,129.5l0.8,1.3l21.1-12.8l-0.8-1.3L941.2,129.5z"/>
		<path class="st5" d="M939.8,16v8.3h1.6V16H939.8z"/>
		<path class="st5" d="M939.8,38.8v33.5h1.6V38.8H939.8z"/>
		<path class="st5" d="M990,46.5l-13.2-6.9h-36.2V38h36.4l13.1,6.8V46.5z"/>
		<path class="st5" d="M940.6,23.6v1.6h39.5v-1.6H940.6z"/>
		<path class="st5" d="M940.8,130.2v62.1h1.6v-62.1H940.8z"/>
		<path class="st5" d="M933.3,85.5l19.4,21.8l1.2-1l-19.5-21.8L933.3,85.5z"/>
		<path class="st5" d="M940,72.7l24.5,27.4l1.2-1l-24.5-27.4L940,72.7z"/>
		<path class="st5" d="M803.4,40.3l36.2,22l0.8-1.3l-36.2-22L803.4,40.3z"/>
		<path class="st5" d="M851.3,69.3l51,31l0.8-1.3l-51-31L851.3,69.3z"/>
		<path class="st5" d="M914,107.4l18.6,11.4h1.3v-1.6H933l-18.2-11.2L914,107.4z"/>
		<path class="st5" d="M798.6,53.7l34.1,20.7l0.8-1.3l-34.1-20.7L798.6,53.7z"/>
		<path class="st5" d="M904.6,118.1l21.1,12.8l0.8-1.3l-21.1-12.8L904.6,118.1z"/>
		<path class="st5" d="M752.8,91.5l52.3,31.8l0.8-1.3l-52.3-31.8L752.8,91.5z"/>
		<path class="st5" d="M817.6,129.1l-0.8,1.3l38.1,23.2l0.8-1.3L817.6,129.1z"/>
		<path class="st5" d="M741,97.7l-0.8,1.3l58.3,35.6l0.8-1.3L741,97.7z"/>
		<path class="st5" d="M810.3,141.7l40.4,24.7l0.8-1.3l-40.4-24.7L810.3,141.7z"/>
		<path class="st5" d="M851,68.3l1.4,0.8l7.5-13.4l-1.4-0.8L851,68.3z"/>
		<path class="st5" d="M844.1,80.4l-27.6,48.9l1.4,0.8l27.6-48.9L844.1,80.4z"/>
		<path class="st5" d="M810,140.7l-28.9,51.2l1.4,0.8l28.9-51.2L810,140.7z"/>
		<path class="st5" d="M839.3,61.2l1.4,0.8l3.6-6.3l-1.4-0.8L839.3,61.2z"/>
		<path class="st5" d="M832.4,73.4l-27.6,48.9l1.4,0.8l27.6-48.9L832.4,73.4z"/>
		<path class="st5" d="M798.3,133.6l-27.6,48.9l1.4,0.8l27.6-48.9L798.3,133.6z"/>
		<path class="st5" d="M752.8,90.2l0.8,1.3l11.1-6.9l34.8-31l-1-1.2l-34.7,31L752.8,90.2z"/>
		<path class="st5" d="M696,137.2l1.5,0.5l4.9-15L741,99l-0.8-1.3l-39.1,24L696,137.2z"/>
		<path class="st5" d="M691.6,150l-14.2,42l1.5,0.5l14.2-42L691.6,150z"/>
		<path class="st5" d="M663.1,192l1.5,0.5l15.5-42l-1.5-0.5L663.1,192z"/>
		<polygon class="st5" points="695.7,108.2 684.9,137.8 684.2,137.5 683.4,137.2 683.6,136.7 694,108.2 663,46.4 664.8,46.4 		"/>
		<polygon class="st5" points="781.8,46.4 763.3,65.7 755.8,68.2 748.4,69.7 740.8,70.5 733.4,70.5 725.8,69.7 718.4,68.2 
			711.2,65.8 704.3,62.7 697.7,59.1 691.6,54.6 685.9,49.8 682.8,46.4 684.9,46.4 687,48.6 692.5,53.4 698.5,57.8 705,61.3 
			711.8,64.4 718.8,66.7 726.1,68.1 733.5,68.9 740.7,69 748.2,68.1 755.4,66.7 762.4,64.4 779.7,46.4 		"/>
		<path class="st5" d="M926.4,16v8.3h1.6V16H926.4z"/>
		<path class="st5" d="M926.4,38.8v33.5h1.6V38.8H926.4z"/>
		<path class="st5" d="M887.2,25l-14.7-9h3l12.5,7.7L887.2,25z"/>
		<polygon class="st5" points="844.8,18.8 844.3,55.3 843.5,55.3 843.5,55.3 842.7,55.3 842.7,55.1 843.3,19.5 		"/>
		<path class="st5" d="M858.8,54.6l0.7,1.4L891,39.5h36.2V38l-36.8,0.1L858.8,54.6z"/>
		<path class="st5" d="M887.6,23.6v1.6h39.5v-1.6H887.6z"/>
		<path class="st5" d="M925.3,130.2v62.1h1.6v-62.1H925.3z"/>
		<path class="st5" d="M913.8,106.2l1.2,1l19.5-21.8l-1.2-1L913.8,106.2z"/>
		<path class="st5" d="M866.3,159.8l4.7,32.6l1.5-0.2l-4.5-31.9l37.6-42.4l-1.2-1L866.3,159.8z"/>
		<path class="st5" d="M844.4,81.5l48.5,29.5l0.8-1.3l-48.5-29.5L844.4,81.5z"/>
		<path class="st5" d="M902.1,99.1l1.2,1l24.5-27.4l-1.2-1L902.1,99.1z"/>
		<path class="st5" d="M892.7,109.8l-38,42.7l1.2,1l38-42.7L892.7,109.8z"/>
		<path class="st5" d="M850.3,165.9l6.1,26.6l1.5-0.3l-6.1-26.6L850.3,165.9z"/>
		<polygon class="st5" points="805.4,36.7 804.7,39.2 804.5,39.8 803.8,39.6 803,39.4 803.5,37.5 		"/>
		<path class="st5" d="M646.7,136.3l0,1.6l37.4,0.4l0-1.6L646.7,136.3z"/>
		<path class="st5" d="M696.3,138.1l74.7,45.4l0.8-1.3l-74.7-45.4L696.3,138.1z"/>
		<path class="st5" d="M646.7,149.5v1.6h32.6v-1.6H646.7z"/>
		<path class="st5" d="M692.7,149.6l-0.8,1.3l69,42l0.8-1.3L692.7,149.6z"/>
		<path class="st5" d="M510.4,191.9l-28.8,51l1.4,0.8l28.8-51L510.4,191.9z"/>
		<path class="st5" d="M520.9,201.1L493.3,250l1.4,0.8l27.6-48.9L520.9,201.1z"/>
		<path class="st5" d="M614.1,192l-14.2,42l1.5,0.5l14.2-42L614.1,192z"/>
		<path class="st5" d="M612.9,234l1.5,0.5l15.5-42l-1.5-0.5L612.9,234z"/>
		<path class="st5" d="M366,192.3v62.1h1.6v-62.1H366z"/>
		<path class="st5" d="M387.4,266.4l1.2,1l38.1-42.7l-4.7-32.6l-1.5,0.2l4.5,31.9L387.4,266.4z"/>
		<path class="st5" d="M435.1,192.4l6.1,26.6l1.5-0.3l-6.1-26.6L435.1,192.4z"/>
		<path class="st5" d="M521.2,202.1l74.7,45.4l0.8-1.3L522,200.8L521.2,202.1z"/>
		<path class="st5" d="M532,191.6l-0.8,1.3l69,42l0.8-1.3L532,191.6z"/>
		<path class="st5" d="M207.7,191.9l-1.4,0.8l28.9,51l1.4-0.8L207.7,191.9z"/>
		<path class="st5" d="M195.9,201.9l27.6,48.9l1.4-0.8l-27.6-48.9L195.9,201.9z"/>
		<path class="st5" d="M104,192l-1.5,0.5l14.2,42l1.5-0.5L104,192z"/>
		<path class="st5" d="M88.3,192.5l15.5,42l1.5-0.5l-15.5-42L88.3,192.5z"/>
		<path class="st5" d="M350.6,192.3v62.1h1.6v-62.1H350.6z"/>
		<path class="st5" d="M291.5,224.7l0.2,0.3l37.9,42.4l1.2-1l-37.6-42.2l4.5-31.9l-1.5-0.2L291.5,224.7z"/>
		<path class="st5" d="M275.5,218.7l1.5,0.3l6.1-26.6l-1.5-0.3L275.5,218.7z"/>
		<path class="st5" d="M121.5,246.2l0.8,1.3l74.7-45.4l-0.8-1.3L121.5,246.2z"/>
		<path class="st5" d="M186.1,191.6l-69,42.1l0.8,1.3l69-42.1L186.1,191.6z"/>
		<polygon class="st5" points="476.4,46.4 479.4,46.4 453.4,62.2 453,61.6 452.6,60.9 453.3,60.5 		"/>
		<path class="st5" d="M389.8,99l0.8,1.3l51-31l-0.8-1.3L389.8,99z"/>
		<path class="st5" d="M359.1,117.3v1.6h1.1l0.2-0.1l18.6-11.3l-0.8-1.3l-18.4,11.2H359.1z"/>
		<path class="st5" d="M459.5,73l0.8,1.3l34.1-20.7l-0.8-1.3L459.5,73z"/>
		<path class="st5" d="M366.4,129.5l0.8,1.3l21.1-12.8l-0.8-1.3L366.4,129.5z"/>
		<path class="st5" d="M487.1,122l0.8,1.3l52.3-31.8l-0.8-1.3L487.1,122z"/>
		<path class="st5" d="M475.4,129.1l-38.1,23.2l0.8,1.3l38.1-23.2L475.4,129.1z"/>
		<path class="st5" d="M551.9,97.7l-58.3,35.6l0.8,1.3L552.7,99L551.9,97.7z"/>
		<path class="st5" d="M441.5,165.1l0.8,1.3l40.4-24.7l-0.8-1.3L441.5,165.1z"/>
		<path class="st5" d="M433.1,55.7l7.5,13.4l1.4-0.8l-7.5-13.4L433.1,55.7z"/>
		<path class="st5" d="M448.8,80.4l-1.4,0.8l27.6,48.9l1.4-0.8L448.8,80.4z"/>
		<path class="st5" d="M482.9,140.7l-1.4,0.8l28.9,51.2l1.4-0.8L482.9,140.7z"/>
		<path class="st5" d="M448.7,55.7l3.6,6.3l1.4-0.8l-3.6-6.3L448.7,55.7z"/>
		<path class="st5" d="M460.6,73.3l-1.4,0.8l27.6,48.9l1.4-0.8L460.6,73.3z"/>
		<path class="st5" d="M494.6,133.5l-1.4,0.8l27.6,48.9l1.4-0.8L494.6,133.5z"/>
		<path class="st5" d="M493.4,53.6l34.7,31l11.2,7l0.8-1.3l-11.1-6.9l-34.6-30.9L493.4,53.6z"/>
		<path class="st5" d="M551.9,99l38.7,23.7l4.9,15l1.5-0.5l-5.1-15.5l-0.2-0.1l-38.9-23.8L551.9,99z"/>
		<path class="st5" d="M601.4,150l-1.5,0.5l14.2,42l1.5-0.5L601.4,150z"/>
		<path class="st5" d="M612.9,150.5l15.5,42l1.5-0.5l-15.5-42L612.9,150.5z"/>
		<polygon class="st5" points="609.3,136.7 609.5,137.2 608.8,137.5 608,137.8 597.4,108.5 597.3,108.2 628,46.4 629.7,46.4 
			599,108.2 		"/>
		<polygon class="st5" points="608,46.4 610,46.4 607,49.8 601.3,54.7 595.1,59.1 588.6,62.7 581.6,65.9 574.4,68.2 567,69.7 
			559.4,70.5 551.8,70.5 544.4,69.7 537,68.2 529.9,65.9 511.1,46.4 513.2,46.4 530.6,64.4 537.4,66.7 544.7,68.1 551.9,68.9 
			559.3,69 566.8,68.1 574,66.7 581.1,64.4 587.9,61.3 594.3,57.8 600.3,53.5 605.9,48.7 		"/>
		<rect x="365" y="46.4" class="st5" width="1.5" height="25.8"/>
		<polygon class="st5" points="450.2,55.1 450.2,55.3 449.4,55.3 449.4,55.3 448.6,55.3 448.5,46.4 450.1,46.4 		"/>
		<polygon class="st5" points="434.1,54.6 433.7,55.3 433.4,56 433.2,55.9 415.1,46.4 418.3,46.4 		"/>
		<path class="st5" d="M366,130.2v62.1h1.6v-62.1H366z"/>
		<path class="st5" d="M358.5,85.5l19.4,21.8l1.2-1l-19.5-21.8L358.5,85.5z"/>
		<path class="st5" d="M387.4,117.9l37.6,42.4l-4.5,31.9l1.5,0.2l4.7-32.6l-38.1-42.9L387.4,117.9z"/>
		<path class="st5" d="M399.2,109.6l0.8,1.3l48.5-29.5l-0.8-1.3L399.2,109.6z"/>
		<path class="st5" d="M365.2,72.7l24.5,27.4l1.2-1l-24.5-27.4L365.2,72.7z"/>
		<path class="st5" d="M400.2,109.8l-1.2,1l38.1,42.7l1.2-1L400.2,109.8z"/>
		<path class="st5" d="M435.1,192.1l1.5,0.3l6.1-26.6l-1.5-0.3L435.1,192.1z"/>
		<path class="st5" d="M646,136.3l-37.2,0.4l0,1.6l37.2-0.4L646,136.3z"/>
		<path class="st5" d="M521.2,182.2l0.8,1.3l74.7-45.4l-0.8-1.3L521.2,182.2z"/>
		<path class="st5" d="M613.6,149.5v1.6H646v-1.6H613.6z"/>
		<path class="st5" d="M600.2,149.6l-69,42.1l0.8,1.3l69-42.1L600.2,149.6z"/>
		<polygon class="st5" points="265.6,60.9 265.2,61.6 264.8,62.2 238.7,46.4 241.7,46.4 264.9,60.5 		"/>
		<path class="st5" d="M276.5,69.3l51,31l0.8-1.3l-51-31L276.5,69.3z"/>
		<path class="st5" d="M339.2,107.4l18.6,11.4h1.3v-1.6h-0.8L340,106.1L339.2,107.4z"/>
		<path class="st5" d="M223.8,53.7l34.1,20.7l0.8-1.3l-34.1-20.7L223.8,53.7z"/>
		<path class="st5" d="M329.8,118.1l21.1,12.8l0.8-1.3l-21.1-12.8L329.8,118.1z"/>
		<path class="st5" d="M178,91.5l52.3,31.8l0.8-1.3l-52.3-31.8L178,91.5z"/>
		<path class="st5" d="M242.8,129.1l-0.8,1.3l38.1,23.2l0.8-1.3L242.8,129.1z"/>
		<path class="st5" d="M166.2,97.7l-0.8,1.3l58.3,35.6l0.8-1.3L166.2,97.7z"/>
		<path class="st5" d="M235.5,141.7l40.4,24.7l0.8-1.3l-40.4-24.7L235.5,141.7z"/>
		<path class="st5" d="M276.2,68.3l1.4,0.8l7.5-13.4l-1.4-0.8L276.2,68.3z"/>
		<path class="st5" d="M241.7,129.4l1.4,0.8l27.6-48.9l-1.4-0.8L241.7,129.4z"/>
		<path class="st5" d="M235.2,140.7l-28.9,51.2l1.4,0.8l28.9-51.2L235.2,140.7z"/>
		<path class="st5" d="M264.5,61.2l1.4,0.8l3.6-6.3l-1.4-0.8L264.5,61.2z"/>
		<path class="st5" d="M257.6,73.4L230,122.2l1.4,0.8L259,74.1L257.6,73.4z"/>
		<path class="st5" d="M223.5,133.6l-27.6,48.9l1.4,0.8l27.6-48.9L223.5,133.6z"/>
		<path class="st5" d="M178,90.2l0.8,1.3l11.1-6.9l34.8-31l-1-1.2l-34.7,31L178,90.2z"/>
		<path class="st5" d="M121.2,137.2l1.5,0.5l4.9-15L166.2,99l-0.8-1.3l-39.1,24L121.2,137.2z"/>
		<path class="st5" d="M116.8,150l-14.2,42l1.5,0.5l14.2-42L116.8,150z"/>
		<path class="st5" d="M88.3,192l1.5,0.5l15.5-42l-1.5-0.5L88.3,192z"/>
		<polygon class="st5" points="120.9,108.2 110.1,137.8 109.4,137.5 108.6,137.2 108.8,136.7 119.2,108.2 88.3,46.4 90,46.4 		"/>
		<polygon class="st5" points="207.1,46.4 188.5,65.7 181,68.2 173.7,69.7 166,70.5 158.6,70.5 151,69.7 143.6,68.2 136.4,65.8 
			129.5,62.7 122.9,59.1 116.8,54.6 111.1,49.8 108,46.4 110.1,46.4 112.2,48.6 117.8,53.4 123.7,57.8 130.2,61.3 137,64.4 
			144,66.7 151.3,68.1 158.7,68.9 166,69 173.4,68.1 180.6,66.7 187.6,64.4 204.9,46.4 		"/>
		<rect x="351.6" y="46.4" class="st5" width="1.6" height="25.8"/>
		<polygon class="st5" points="269.6,46.4 269.5,55.3 268.7,55.3 268.7,55.3 267.9,55.3 267.9,55.1 268.1,46.4 		"/>
		<polygon class="st5" points="299.7,46.4 303.1,46.4 285,55.9 284.8,56 284.4,55.3 284,54.6 		"/>
		<path class="st5" d="M350.6,130.2v62.1h1.6v-62.1H350.6z"/>
		<path class="st5" d="M339,106.2l1.2,1l19.4-21.8l-1.2-1L339,106.2z"/>
		<path class="st5" d="M291.5,159.8l4.7,32.6l1.5-0.2l-4.5-31.9l37.6-42.4l-1.2-1L291.5,159.8z"/>
		<path class="st5" d="M269.6,81.5l48.5,29.5l0.8-1.3l-48.5-29.5L269.6,81.5z"/>
		<path class="st5" d="M327.3,99.1l1.2,1L353,72.7l-1.2-1L327.3,99.1z"/>
		<path class="st5" d="M317.9,109.8l-38,42.7l1.2,1l38-42.7L317.9,109.8z"/>
		<path class="st5" d="M275.5,165.9l6.1,26.6l1.5-0.3l-6.1-26.6L275.5,165.9z"/>
		<path class="st5" d="M71.9,136.3l0,1.6l37.4,0.4l0-1.6L71.9,136.3z"/>
		<path class="st5" d="M121.5,138.1l74.7,45.4l0.8-1.3l-74.7-45.4L121.5,138.1z"/>
		<path class="st5" d="M71.9,149.5v1.6h32.6v-1.6H71.9z"/>
		<path class="st5" d="M117.9,149.6l-0.8,1.3l69,42l0.8-1.3L117.9,149.6z"/>
		<path class="st5" d="M39.3,192l-14.2,42l1.5,0.5l14.2-42L39.3,192z"/>
		<path class="st5" d="M38.1,234l1.5,0.5l15.5-42l-1.5-0.5L38.1,234z"/>
		<path class="st5" d="M20.7,137.7l-4.9-15L0,113.1v-1.8l16.8,10.3l0.2,0.1l5.1,15.5L20.7,137.7z"/>
		<path class="st5" d="M26.6,150l-1.5,0.5l14.2,42l1.5-0.5L26.6,150z"/>
		<path class="st5" d="M38.1,150.5l15.5,42L55,192l-15.5-42L38.1,150.5z"/>
		<polygon class="st5" points="34.5,136.7 34.7,137.2 34,137.5 33.3,137.8 22.6,108.5 22.5,108.2 53.2,46.4 55,46.4 24.2,108.2 		
			"/>
		<polygon class="st5" points="33.2,46.4 35.2,46.4 32.2,49.8 26.5,54.7 20.3,59.1 13.8,62.7 6.8,65.9 0,68.1 0,66.4 6.3,64.4 
			13.1,61.3 19.5,57.8 25.5,53.5 31.1,48.7 		"/>
		<path class="st5" d="M71.2,136.3L34,136.7l0,1.6l37.2-0.4L71.2,136.3z"/>
		<path class="st5" d="M0,151.4v-1.8l21-12.8l0.8,1.3L0,151.4z"/>
		<path class="st5" d="M38.8,149.5v1.6h32.4v-1.6H38.8z"/>
		<path class="st5" d="M0,166.9v-1.8l25.4-15.5l0.8,1.3L0,166.9z"/>
	</g>
</g>
</svg>
